<?xml version="1.0" encoding="UTF-8" standalone="no"?>
<svg width="35px" height="25px" viewBox="0 0 35 25" version="1.1" xmlns="http://www.w3.org/2000/svg" xmlns:xlink="http://www.w3.org/1999/xlink">
    <!-- Generator: Sketch 3.8.3 (29802) - http://www.bohemiancoding.com/sketch -->
    <title>info</title>
    <desc>Created with Sketch.</desc>
    <defs></defs>
    <g id="Page-1" stroke="none" stroke-width="1" fill="none" fill-rule="evenodd" fill-opacity="0.454851676">
        <path d="M25.8090937,21.8151515 C23.3072995,22.8728137 20.3619995,23.482825 17.2094114,23.482825 C8.13115965,23.482825 0.771782552,18.4244873 0.771782552,12.1847115 C0.771782552,5.94493566 8.13115965,0.886597938 17.2094114,0.886597938 C26.2876631,0.886597938 33.6470402,5.94493566 33.6470402,12.1847115 C33.6470402,15.0282097 32.1187387,17.6263621 29.595925,19.6122779 L35.0292245,24.2061906 L25.8090937,21.8151515 Z M17.4148817,10.626351 C20.2518354,10.626351 22.5516407,9.05652203 22.5516407,7.12003988 C22.5516407,5.18355774 20.2518354,3.61372879 17.4148817,3.61372879 C14.5779281,3.61372879 12.2781227,5.18355774 12.2781227,7.12003988 C12.2781227,9.05652203 14.5779281,10.626351 17.4148817,10.626351 Z M13.5109449,13.3534818 L21.3188186,13.3534818 L21.3188186,19.9765139 L13.5109449,19.9765139 L13.5109449,13.3534818 Z" id="Combined-Shape" fill="#FFFFFF"></path>
    </g>
</svg>