<?xml version="1.0" encoding="UTF-8" standalone="no"?>
<svg width="106px" height="55px" viewBox="0 0 106 55" version="1.1" xmlns="http://www.w3.org/2000/svg" xmlns:xlink="http://www.w3.org/1999/xlink">
    <!-- Generator: Sketch 3.8.3 (29802) - http://www.bohemiancoding.com/sketch -->
    <title>park</title>
    <desc>Created with Sketch.</desc>
    <defs></defs>
    <g id="Page-1" stroke="none" stroke-width="1" fill="none" fill-rule="evenodd">
        <path d="M24.0357745,26 L15.0065556,26 C12.7956808,26 11,27.7941006 11,30.0072357 L11,38.9927643 C11,40.5941257 11.933295,41.9702525 13.283922,42.6129003 C14.2547767,46.2894316 17.6033241,49 21.5849587,49 C25.4255105,49 28.6770452,46.4781175 29.7739152,43 L52.3443579,43 C53.3875941,46.5655985 56.6821408,49.1699174 60.5849587,49.1699174 C64.6733559,49.1699174 68.0942599,46.3120389 68.95893,42.4850227 C70.1768154,41.7975666 71,40.4912133 71,38.9927643 L71,34.5127918 C71,34.5127918 71,34.5127917 71,34.5127917 L71,30.0072357 C71,29.355833 70.8455673,28.7416999 70.5714313,28.1990466 C70.5195561,27.8138635 70.4620653,27.4220056 70.3984921,27.0239366 C69.2019036,19.5313942 64.9663601,14.5366475 64.9663601,14.5366475 C64.9663601,14.5366475 57.8893798,11.9672522 46.3953064,12.5909605 C34.901233,13.2146688 31.2172458,14.768981 31.2172458,14.768981 L24.0357745,26 Z" id="Combined-Shape" fill="#D8D8D8" transform="translate(41.000000, 30.831635) scale(-1, 1) translate(-41.000000, -30.831635) "></path>
        <ellipse id="Oval-5-Copy-2" fill="#000000" cx="45.3646334" cy="25.6479888" rx="8.36463341" ry="8.36463341"></ellipse>
        <rect id="Rectangle-2-Copy" fill="#000000" x="43" y="30" width="4" height="22.5962271"></rect>
        <polygon id="Path-3-Copy" fill="#098552" transform="translate(87.666456, 30.572499) scale(-1, 1) translate(-87.666456, -30.572499) " points="101.332912 11 74 30.9843525 99.2990927 50.1449978 89.0216295 30.7265724"></polygon>
    </g>
</svg>